<svg width="15" height="15" viewBox="0 0 15 15" fill="none" xmlns="http://www.w3.org/2000/svg">
<path d="M14.9481 6.04812C14.8222 5.66299 14.4895 5.38149 14.0873 5.32274L10.2665 4.76698L8.55664 1.30455C8.19826 0.574915 7.00249 0.574915 6.64411 1.30455L4.93421 4.76698L1.11328 5.32286C0.71115 5.38149 0.378397 5.66212 0.251395 6.04825C0.126643 6.43438 0.230019 6.85889 0.521273 7.14164L3.28719 9.83718L2.63443 13.6431C2.56618 14.0431 2.73043 14.4474 3.05794 14.6864C3.38969 14.9275 3.8227 14.9573 4.1822 14.7674L7.59988 12.97L11.0176 14.7674C11.1733 14.8495 11.3451 14.89 11.5147 14.89C11.7354 14.89 11.9563 14.8218 12.1419 14.6863C12.4704 14.4474 12.6347 14.043 12.5654 13.643L11.9127 9.83706L14.6786 7.14151C14.9684 6.85776 15.073 6.43425 14.9481 6.04812ZM10.0223 8.70204C9.77166 8.94629 9.65641 9.30042 9.71616 9.64605L10.098 11.8743L8.09701 10.8226C7.94126 10.7404 7.77063 10.6999 7.59988 10.6999C7.42925 10.6999 7.25962 10.7404 7.10274 10.8226L5.10159 11.8743L5.48347 9.64605C5.54322 9.30042 5.42797 8.94742 5.17734 8.70204L3.55707 7.12339L5.79497 6.79801C6.14273 6.74788 6.44248 6.52926 6.59824 6.2145L7.59875 4.18785L8.59927 6.2145C8.75502 6.52913 9.05478 6.74788 9.40253 6.79801L11.6404 7.12339L10.0223 8.70204Z" fill="#4D5AE5"/>
</svg>
